<!-- Generator: Adobe Illustrator 23.1.1, SVG Export Plug-In  -->
<svg version="1.1" xmlns="http://www.w3.org/2000/svg" xmlns:xlink="http://www.w3.org/1999/xlink" x="0px" y="0px"
	 width="2488.14px" height="318.743px" viewBox="0 0 2488.14 318.743" style="enable-background:new 0 0 2488.14 318.743;"
	 xml:space="preserve">
<style type="text/css">
	.st0{clip-path:url(#SVGID_2_);}
	.st1{fill:#231F20;}
	.st2{clip-path:url(#SVGID_4_);}
</style>
<defs>
</defs>
<g>
	<defs>
		<rect id="SVGID_1_" width="1141.609" height="318.285"/>
	</defs>
	<clipPath id="SVGID_2_">
		<use xlink:href="#SVGID_1_"  style="overflow:visible;"/>
	</clipPath>
	<g id="Layer_1-2_1_" class="st0">
		<path class="st1" d="M35.79,313.22H0V96.41h35.79V313.22z"/>
		<path class="st1" d="M130.5,313.22H94.72V181.45c0-13.747,2.333-26.167,7-37.26c4.341-10.649,10.783-20.314,18.94-28.42
			c8.204-7.981,17.944-14.21,28.63-18.31c23.212-8.696,48.788-8.696,72,0c10.684,4.102,20.424,10.332,28.63,18.31
			c8.138,8.079,14.515,17.755,18.73,28.42c4.493,11.087,6.74,23.507,6.74,37.26v131.77h-35.85v-133
			c0-16.28-4.873-29.683-14.62-40.21c-9.747-10.527-22.977-15.797-39.69-15.81c-16.707,0-30.007,5.26-39.9,15.78
			c-9.893,10.52-14.837,23.923-14.83,40.21V313.22z"/>
		<path class="st1" d="M414.25,313.22c-12.627,1.4-24.203,0.7-34.73-2.1c-10.043-2.542-19.299-7.534-26.94-14.53
			c-7.712-7.275-13.684-16.197-17.47-26.1c-4.213-10.52-6.32-22.657-6.32-36.41V50.1h35.79v46.31h48.83v34.1h-48.83v103.57
			c0,9.54,1.333,17.397,4,23.57c2.294,5.706,6.037,10.714,10.86,14.53c4.679,3.55,10.101,5.995,15.86,7.15
			c6.247,1.285,12.649,1.642,19,1.06L414.25,313.22z"/>
		<path class="st1" d="M653,245.86c-8.42,23.333-21.42,41.227-39,53.68c-17.58,12.453-38.98,18.7-64.2,18.74
			c-15.058,0.139-29.977-2.876-43.8-8.85c-26.679-11.424-47.78-32.903-58.73-59.78c-11.496-28.553-11.496-60.447,0-89
			c5.449-13.424,13.374-25.704,23.36-36.2c9.855-10.28,21.586-18.579,34.56-24.45c24.312-10.936,51.923-11.994,77-2.95
			c11.264,4.091,21.785,9.992,31.15,17.47c9.798,7.868,18.196,17.334,24.84,28c7.211,11.58,12.342,24.332,15.16,37.68l-166.26,70.3
			c6.693,10.644,16.057,19.349,27.16,25.25c10.936,5.863,23.162,8.905,35.57,8.85c15.433,0,28.553-3.3,39.36-9.9
			s19.72-16.213,26.74-28.84L653,245.86z M474.45,204.61c-0.036,4.939,0.389,9.87,1.27,14.73l133.87-56.41
			c-6.403-11.441-15.599-21.074-26.73-28c-10.502-6.7-22.693-10.275-35.15-10.31c-8.982,0.055-17.861,1.915-26.11,5.47
			c-8.804,3.706-16.815,9.066-23.6,15.79c-7.244,7.244-13.017,15.821-17,25.26C476.627,181.1,474.443,192.257,474.45,204.61z"/>
		<path class="st1" d="M696.32,184.4c0-16.28,2.733-30.593,8.2-42.94s12.907-22.453,22.32-30.32
			c9.56-7.937,20.784-13.621,32.84-16.63c13.14-3.265,26.773-4.048,40.2-2.31v33.26c-20.92-1.96-37.447,1.97-49.58,11.79
			c-12.133,9.82-18.2,25.257-18.2,46.31v129.66h-35.78V184.4z"/>
		<path class="st1" d="M872.72,313.22h-35.79V181.45c0-13.747,2.333-26.167,7-37.26c4.341-10.649,10.783-20.314,18.94-28.42
			c8.204-7.981,17.944-14.21,28.63-18.31c23.212-8.696,48.788-8.696,72,0c10.684,4.102,20.424,10.332,28.63,18.31
			c8.138,8.079,14.515,17.755,18.73,28.42c4.493,11.087,6.74,23.507,6.74,37.26v131.77h-35.85v-133
			c0-16.28-4.873-29.683-14.62-40.21c-9.747-10.527-22.977-15.797-39.69-15.81c-16.713,0-30.013,5.26-39.9,15.78
			c-9.887,10.52-14.827,23.923-14.82,40.21V313.22z"/>
		<path class="st1" d="M1277.71,313.22h-34.94v-33.68c-8.4,11.809-19.386,21.543-32.12,28.46
			c-13.067,7.157-27.752,10.841-42.65,10.7c-14.448,0.078-28.753-2.862-42-8.63c-12.929-5.595-24.631-13.679-34.44-23.79
			c-9.981-10.373-17.83-22.604-23.1-36c-5.701-14.398-8.554-29.765-8.4-45.25c-0.152-15.51,2.782-30.894,8.63-45.26
			c5.448-13.428,13.372-25.711,23.36-36.21c20.088-21.001,47.939-32.8,77-32.62c14.799-0.146,29.459,2.867,43,8.84
			c12.931,5.707,24.594,13.934,34.31,24.2c9.851,10.524,17.633,22.808,22.94,36.21c5.682,14.261,8.542,29.489,8.42,44.84
			L1277.71,313.22z M1241.93,205c0.079-10.806-1.917-21.527-5.88-31.58c-3.743-9.517-9.162-18.286-16-25.89
			c-6.535-7.303-14.45-13.24-23.29-17.47c-8.71-4.188-18.255-6.348-27.92-6.32c-9.802-0.057-19.491,2.103-28.34,6.32
			c-8.802,4.2-16.71,10.061-23.29,17.26c-6.865,7.537-12.213,16.328-15.75,25.89c-3.807,10.164-5.725,20.937-5.66,31.79
			c-0.116,10.854,1.804,21.634,5.66,31.78c3.603,9.404,8.946,18.045,15.75,25.47c6.547,7.182,14.466,12.979,23.29,17.05
			c8.884,4.09,18.56,6.176,28.34,6.11c9.803,0.06,19.491-2.101,28.34-6.32c8.76-4.169,16.605-10.035,23.08-17.26
			c6.706-7.498,12.038-16.12,15.75-25.47C1240,226.39,1242.01,215.738,1241.93,205z"/>
		<path class="st1" d="M1525.67,245.86c-7.333,21.9-19.89,39.443-37.67,52.63s-38.903,19.783-63.37,19.79
			c-14.501,0.076-28.85-2.945-42.09-8.86c-12.985-5.753-24.719-13.991-34.54-24.25c-9.954-10.468-17.875-22.696-23.36-36.06
			c-5.807-14.038-8.741-29.098-8.63-44.29c-0.103-30.034,11.355-58.956,32-80.77c9.845-10.281,21.565-18.584,34.53-24.46
			c13.201-6.055,27.566-9.154,42.09-9.08c11.578-0.075,23.094,1.704,34.11,5.27c10.371,3.378,20.155,8.347,29,14.73
			c8.718,6.346,16.388,14.019,22.73,22.74c6.558,9.048,11.669,19.061,15.15,29.68h-38.31c-5.835-11.293-14.549-20.845-25.26-27.69
			c-10.667-6.8-23.157-10.2-37.47-10.2c-9.823-0.062-19.534,2.092-28.41,6.3c-8.78,4.153-16.651,10.002-23.16,17.21
			c-6.702,7.442-11.979,16.051-15.57,25.4c-7.586,19.877-7.586,41.853,0,61.73c3.56,9.304,8.842,17.854,15.57,25.2
			c6.526,7.082,14.4,12.79,23.16,16.79c8.914,4.073,18.61,6.148,28.41,6.08c14.32,0,26.88-3.4,37.68-10.2
			c10.733-6.742,19.386-16.327,25-27.69L1525.67,245.86z"/>
		<path class="st1" d="M1605.24,313.22h-35.78V96.41h35.78V313.22z"/>
		<path class="st1" d="M1760.16,90.51c14.87-0.118,29.589,2.98,43.15,9.08c13.043,5.833,24.784,14.222,34.53,24.67
			c20.308,22.071,31.511,51.008,31.36,81c0.122,15.104-2.739,30.084-8.42,44.08c-5.41,13.305-13.181,25.522-22.94,36.06
			c-9.717,10.428-21.469,18.752-34.53,24.46c-13.599,5.959-28.303,8.978-43.15,8.86c-14.781,0.133-29.419-2.887-42.94-8.86
			c-13.02-5.775-24.756-14.09-34.52-24.46c-9.88-10.487-17.732-22.713-23.16-36.06c-5.686-13.994-8.547-28.975-8.42-44.08
			c-0.099-15.238,2.76-30.351,8.42-44.5c5.353-13.511,13.211-25.888,23.16-36.48c9.792-10.391,21.518-18.771,34.52-24.67
			C1730.701,93.488,1745.355,90.383,1760.16,90.51z M1760,284.17c9.831,0.066,19.557-2.016,28.5-6.1
			c8.828-4.042,16.785-9.761,23.43-16.84c6.823-7.267,12.195-15.769,15.83-25.05c3.849-9.785,5.787-20.216,5.71-30.73
			c0.051-10.651-1.885-21.219-5.71-31.16c-3.599-9.487-8.971-18.202-15.83-25.68c-6.631-7.202-14.586-13.062-23.43-17.26
			c-18.069-8.413-38.931-8.413-57,0c-8.803,4.164-16.695,10.03-23.22,17.26c-6.748,7.524-12.047,16.23-15.63,25.68
			c-3.818,9.942-5.748,20.51-5.69,31.16c-0.084,10.513,1.848,20.944,5.69,30.73c3.617,9.244,8.917,17.738,15.63,25.05
			c6.539,7.107,14.434,12.832,23.22,16.84C1740.442,282.155,1750.169,284.237,1760,284.17z"/>
		<path class="st1" d="M1947.92,313.22h-35.78V181.45c0-13.747,2.313-26.167,6.94-37.26c4.36-10.654,10.822-20.319,19-28.42
			c8.204-7.981,17.944-14.21,28.63-18.31c23.212-8.696,48.788-8.696,72,0c10.684,4.102,20.424,10.332,28.63,18.31
			c8.113,8.086,14.466,17.762,18.66,28.42c4.487,11.087,6.733,23.507,6.74,37.26v131.77H2057v-133c0-16.28-4.873-29.683-14.62-40.21
			s-22.977-15.787-39.69-15.78c-16.713,0-30.013,5.26-39.9,15.78s-14.83,23.923-14.83,40.21L1947.92,313.22z"/>
		<path class="st1" d="M2352.92,313.22H2318v-33.68c-8.411,11.806-19.403,21.54-32.14,28.46
			c-13.061,7.168-27.742,10.866-42.64,10.74c-14.448,0.078-28.753-2.862-42-8.63c-12.929-5.595-24.631-13.679-34.44-23.79
			c-9.985-10.372-17.837-22.603-23.11-36c-5.696-14.399-8.549-29.766-8.4-45.25c-0.147-15.509,2.786-30.893,8.63-45.26
			c5.451-13.428,13.379-25.712,23.37-36.21c20.088-21.001,47.939-32.8,77-32.62c14.779-0.138,29.417,2.876,42.94,8.84
			c12.932,5.71,24.599,13.936,34.32,24.2c9.851,10.524,17.633,22.808,22.94,36.21c5.682,14.261,8.542,29.489,8.42,44.84
			L2352.92,313.22z M2317.14,205c0.076-10.807-1.924-21.527-5.89-31.58c-3.727-9.514-9.129-18.282-15.95-25.89
			c-6.542-7.291-14.46-13.218-23.3-17.44c-8.71-4.188-18.255-6.348-27.92-6.32c-9.803-0.06-19.492,2.101-28.34,6.32
			c-8.804,4.203-16.715,10.063-23.3,17.26c-6.859,7.541-12.202,16.33-15.74,25.89c-3.807,10.164-5.725,20.937-5.66,31.79
			c-0.116,10.854,1.803,21.634,5.66,31.78c3.603,9.402,8.943,18.042,15.74,25.47c6.552,7.18,14.474,12.977,23.3,17.05
			c8.884,4.091,18.56,6.177,28.34,6.11c9.799,0.06,19.485-2.101,28.33-6.32c8.763-4.168,16.612-10.035,23.09-17.26
			c6.703-7.499,12.031-16.121,15.74-25.47C2315.227,226.409,2317.23,215.747,2317.14,205z"/>
		<path class="st1" d="M2402.17,0H2438v232.81c0,9.553,1.333,17.413,4,23.58c2.291,5.705,6.035,10.71,10.86,14.52
			c4.738,3.585,10.236,6.034,16.07,7.16c6.318,1.281,12.771,1.774,19.21,1.47v33.68c-12.633,1.4-24.213,0.7-34.74-2.1
			c-10.093-2.574-19.41-7.56-27.15-14.53c-7.821-7.225-13.871-16.157-17.68-26.1c-4.207-10.52-6.313-22.657-6.32-36.41L2402.17,0z"
			/>
	</g>
</g>
</svg>