<!-- Generator: Adobe Illustrator 23.1.1, SVG Export Plug-In  -->
<svg version="1.1" xmlns="http://www.w3.org/2000/svg" xmlns:xlink="http://www.w3.org/1999/xlink" x="0px" y="0px" width="102.8px"
	 height="22.637px" viewBox="0 0 102.8 22.637" style="enable-background:new 0 0 102.8 22.637;" xml:space="preserve">
<style type="text/css">
	.st0{fill:#010202;}
</style>
<defs>
</defs>
<path class="st0" d="M25.324,22.202h-3.066V10.208c0-1.223-0.361-2.233-1.096-3.021c-0.731-0.796-1.709-1.193-2.935-1.193
	c-1.226,0-2.205,0.398-2.94,1.193c-0.731,0.788-1.096,1.799-1.096,3.021v11.994h-3.053V10.208c0-1.223-0.374-2.233-1.104-3.021
	C9.298,6.391,8.324,5.993,7.098,5.993S4.893,6.391,4.162,7.187c-0.735,0.788-1.096,1.799-1.096,3.021v11.994H0V10.317
	c0-1.007,0.175-1.945,0.524-2.81c0.349-0.865,0.832-1.62,1.457-2.27c0.625-0.646,1.364-1.149,2.237-1.511
	c0.861-0.361,1.823-0.54,2.879-0.54c1.271,0,2.376,0.276,3.317,0.824c0.93,0.552,1.677,1.299,2.233,2.233
	c0.548-0.935,1.299-1.682,2.25-2.233c0.946-0.548,2.059-0.824,3.33-0.824c1.056,0,2.018,0.179,2.883,0.54
	c0.861,0.361,1.612,0.864,2.229,1.511c0.626,0.649,1.113,1.404,1.462,2.27c0.345,0.864,0.523,1.803,0.523,2.81V22.202z"/>
<path class="st0" d="M44.375,3.65h3.062v11.243c0,1.173-0.199,2.237-0.597,3.183c-0.39,0.95-0.938,1.763-1.636,2.436
	c-0.699,0.67-1.515,1.194-2.469,1.564c-0.946,0.377-1.957,0.561-3.037,0.561c-1.084,0-2.104-0.184-3.045-0.561
	c-0.95-0.369-1.774-0.894-2.469-1.564c-0.698-0.674-1.243-1.486-1.64-2.436c-0.394-0.945-0.593-2.01-0.593-3.183V3.65h3.061v11.243
	c0,1.389,0.422,2.537,1.275,3.438c0.845,0.901,1.99,1.349,3.423,1.349c1.438,0,2.575-0.447,3.411-1.349
	c0.837-0.901,1.254-2.05,1.254-3.438V3.65z"/>
<path class="st0" d="M57.052,22.202H53.99V10.931c0-1.178,0.199-2.241,0.597-3.188c0.398-0.95,0.938-1.758,1.628-2.433
	c0.682-0.674,1.498-1.193,2.449-1.566c0.954-0.374,1.982-0.557,3.09-0.557c1.104,0,2.136,0.183,3.086,0.557
	c0.954,0.373,1.77,0.893,2.46,1.566c0.682,0.675,1.218,1.482,1.604,2.433c0.39,0.946,0.581,2.01,0.581,3.188v11.271h-3.062V10.82
	c0-1.389-0.422-2.537-1.258-3.438c-0.845-0.898-1.977-1.349-3.411-1.349c-1.438,0-2.574,0.451-3.427,1.349
	c-0.844,0.901-1.275,2.05-1.275,3.438V22.202z"/>
<path class="st0" d="M93.546,12.875c0,1.369-0.243,2.648-0.723,3.837c-0.479,1.19-1.141,2.222-1.969,3.095
	c-0.828,0.877-1.815,1.571-2.944,2.074c-1.128,0.5-2.359,0.756-3.679,0.756c-1.299,0-2.517-0.248-3.646-0.735
	c-1.133-0.495-2.115-1.178-2.96-2.059c-0.844-0.877-1.51-1.904-2.006-3.098c-0.491-1.186-0.739-2.478-0.739-3.87
	c0-1.392,0.244-2.68,0.723-3.852c0.483-1.178,1.145-2.197,1.985-3.062c0.845-0.865,1.832-1.543,2.964-2.039
	c1.133-0.491,2.334-0.734,3.609-0.734c1.296,0,2.502,0.28,3.61,0.84c1.104,0.569,2.046,1.332,2.813,2.295V0h2.96V12.875z
	 M89.977,10.191c-0.341-0.832-0.788-1.555-1.352-2.177c-0.564-0.629-1.226-1.12-1.985-1.482c-0.751-0.353-1.563-0.54-2.428-0.54
	c-0.861,0-1.673,0.187-2.432,0.54c-0.751,0.361-1.421,0.849-1.997,1.462c-0.577,0.612-1.027,1.34-1.348,2.18
	c-0.329,0.841-0.491,1.738-0.491,2.7c0,0.983,0.162,1.896,0.491,2.741c0.321,0.836,0.771,1.571,1.348,2.192
	c0.577,0.629,1.247,1.121,1.997,1.478c0.759,0.357,1.571,0.54,2.432,0.54c0.84,0,1.645-0.183,2.396-0.54
	c0.755-0.356,1.421-0.856,1.998-1.494c0.581-0.637,1.031-1.376,1.373-2.217c0.333-0.836,0.507-1.741,0.507-2.7
	C90.484,11.913,90.31,11.02,89.977,10.191z"/>
<path class="st0" d="M102.8,22.202h-3.062V0h3.062V22.202z"/>
</svg>